<?xml version="1.0" encoding="UTF-8"?>
<svg id="Layer_1" data-name="Layer 1" xmlns="http://www.w3.org/2000/svg" version="1.1" viewBox="0 0 1080 250">
  <defs>
    <style>
      .cls-1 {
        fill: #000;
        stroke-width: 0px;
      }
    </style>
  </defs>
  <path class="cls-1" d="M976.6,189.6c.6-3.3.3-6.6-.3-9.9-1.6-9.2-4.8-18-7.9-26.8-1.7-4.9-4-9.6-4.9-15,1.4,0,2.4-.1,3.4,0,3.8.5,4.8-.7,2.9-4.2-3.2-5.8-7.1-11.1-12.2-15.8-.8,2.1-1.1,4-2,5.5-2.8,4.8-2.4,9.5-.8,14.7,4.5,13.9,8.6,28,12.8,42,2.7,9.2-.6,12.8-9.9,11.2-3-.5-5.6-1.9-8.4-3.1-5.6-2.4-8-7.4-10.5-13.5-2.6,6.3-5.6,10.9-9.4,14.8-7.1,7.3-13,6-16.8-3.6-1.3-3.4,1.5-5.1,1.8-7.8-3-1-4.6.9-6.2,3-3.8,5.3-8.1,10.2-14.1,13.2-10,5.1-20.4-.7-21.1-11.8-.2-3.8-1.5-3.8-4.6-2.9-11.2,3.3-22.3,6.9-33.7,9.3-60.7,13.2-121.9,23.5-183.9,29.2-42.3,3.9-84.7,7.2-127.2,7.7-26.9.3-53.9.9-80.8-1-20.1-1.4-40.3-1.8-60.3-3.9-31.6-3.4-62.1-11.4-91.8-22.9-9.2-3.5-16.2-8.7-21.4-16.9-2.7-4.3-5.9-8.2-10.1-11.9-.7,2.9-1.2,4.9-1.7,7.1-1.1-.2-2.1-.3-3-.7-12.2-5.7-23.5-3-34.8,3-18.5,9.9-36.5,20.7-54.8,30.9-4.8,2.7-9.7,5.2-15,6.7-3.5.9-6.8,1.1-9.3-2.5-4.8-6.8-1.9-24.9,5.2-29.2,12.9-7.9,25.9-15.7,39.2-23,6.3-3.5,12.9-6.8,20.4-7.8,8.7-1.1,15.9,2.6,23.3,6,2.8,1.4,4,.7,5.1-2,2.7-6.6,1.5-10.5-4.7-14.1-5.3-3.1-11.2-5.1-16.3-8.7-17.5-12.2-11.4-28.3,1.9-38,4.2-3.1,7.7-2,10.4,2.5,3,4.8,5.9,9.7,8.7,14.6,6.1,10.7,15.3,17.9,26.8,22.1,18.4,6.7,37.6,10.2,57.1,10.8,20.5.7,40.9-2.6,61.3-4.1,3.9-.3,5,.1,3.2,4.3-4.5,10.2-8.1,20.8-9.8,31.9-2.8,18,10.6,22,22.7,19.4,10.4-2.3,19.8-7,28.2-13.3,19.6-14.6,41.3-24.8,64.7-31.4,16.2-4.6,23.6-16.2,25.5-32.1.2-1.5,0-2-1.5-2.3-5.8-1.2-8.2.4-8.7,6.3-.2,2.2-.5,4.3-.3,6.5.3,3.7-1.5,5.3-4.8,6.2-33.8,9.7-64.4,25.9-93.2,45.8-4,2.8-8.4,5.2-13.2,5.5-9.3.6-16.8-3.2-13.6-14.8,2.7-9.8,6.1-19.3,10.9-28.3,1.4-2.6,3.2-4.2,6.3-4.9,35.1-8.3,70.2-17,105.4-25.1,24.8-5.7,49.7-10,74.9-1.6,9.8,3.2,9.8,2.6,15.2-6.5,1.6-2.8,2-4-1.9-4.8-10.4-2.2-20.7-5-31.1-7.3-3-.6-4-1.7-4.1-4.9-.3-13.3-1-26.6-1.5-39.9q-.2-6.1,5.8-4.7c.2,0,.6-.2,1.2-.5-3.7-12.1-7.3-24.2-11.3-37.3-2.3,4-3.8,7-5.7,9.7-2.1,3-2.8,6.1-1.2,9.3,2.4,5,2.3,10.3,2.4,15.6,0,16.6,0,33.3,0,50.2-4.5-1.8-9.4-3.7-14.3-5.6-4.9-1.9-9.8-3.8-15.6-6,1.7,6.9-3.4,15,7.5,18.2-1.8.7-2.3,1.1-3,1.2-26.5,6.4-52.8,13.7-79.6,19.1-22.5,4.5-44.9,10.3-67.9,11.3-29.3,1.2-58.6.1-87.6-5.1-15.5-2.8-30-7.4-41.5-19-6.5-6.5-10.4-14.6-15.2-22.1-2.9-4.5-6.6-6-11.3-3.6-2,1-4,2.5-5.6,4.1-14.5,14.5-17.8,31.9-9.6,50.7,1.3,3,.7,4.1-2,5.6-19,10.3-38,20.7-57,31-6.7,3.6-13.5,7.3-20.7,9.8-8,2.8-14.5-2.1-14.2-10.6,0-3.9,1.1-7.6,2.8-11,4.9-10.4,10-20.6,15-31,1.1-2.2,2.4-4.4.3-7-8.8,12.1-17.5,24-21.2,38.7-2.1,8.1-2.3,16.1,1.2,23.9,2.6,5.9,7.1,8.7,13.4,9.6,6.9,1,12.1-2.3,18-6.2-1.1,5.1-2,9.3-2.8,13.5-.7,3.9-1.4,8,.1,11.9,4.8,12.4,13.9,17.7,28.5,10.6,8.9-4.4,17.1-10.3,25.4-15.8,12.7-8.4,26.4-14.7,40.2-20.9,7.3-3.3,14.6-3.5,22.3-1.3,4.9,1.4,7.5,3.8,8.3,9,.6,4.4,2.3,8.6,4,12.8,1.8,4.6,5,8.2,9.3,10.8,4.2,2.5,6.3,1.5,7.4-3.3.8-3-.3-6.1-.1-9.6,12.3,5.3,24.4,9.8,37,13.3,52.1,14.5,105.5,18,159.1,18.8,18.4.3,36.9-.2,55.4-.5,28.2-.4,56.3-1.9,84.3-4.4,29.5-2.7,59.1-5,88.4-9.3,53.2-7.9,105.8-19,157.9-32.3,4.9-1.2,6.9-1.1,8.2,4.6,2.5,11.3,10.5,14.4,20.9,9.1,4.2-2.1,8-4.8,11.5-8,2.5-2.2,3.5-2.2,5.4.7,4.9,7.6,9.3,8.5,17.3,4.6,1.3-.6,2.6-1.5,3.9-2.3,4-2.5,6.4-8.7,10-9.1,3.5-.4,6.3,5.9,10.3,8.4,12.1,7.7,26.4,2.1,29-11.5Z"/>
  <path class="cls-1" d="M625.5,63c-8,.6-13.4,5-16.1,12.3-2.5,6.9.7,12.1,6.2,16.4,7,5.5,13.7,11.5,20.7,17.4-10.1,6.9-21.3,10.4-30.9,17.2-24.1,17-47.3,35.1-71.2,52.4-10.3,7.4-21.2,13.8-33.2,18.1-19.8,7-29.3-.8-26.6-21.5.5-4,1.8-7.9,1.4-12.5-2.5,1.3-3.1,3.5-3.9,5.4-3.9,8.7-4.8,18-4.1,27.4,1,13.5,10.4,20.6,23.7,18,7.8-1.5,14.7-5,21.6-8.9,23.6-13.2,45.3-29.1,66.3-46.1,12.9-10.5,25.3-21.7,40.6-28.9,6.8-3.2,13.5-6.5,20.7-8.5,1.1-.3,3.1-1.6,3.2,1.3.2,11.4,8.5,14.7,17.3,17.7,3.7,1.3,5-.7,5.6-3.5.6-2.6.2-5.3-.3-7.9-1-5.4-2.4-10.7-4.7-15.7-1.4-3.2-.5-4.2,2.5-5.2,5.4-1.7,10.6-3.8,16-5.7,10-3.6,20.1-7.1,30-10.8,4.3-1.6,6.1-5.6,5.8-11-.3-4.6-3.9-3.8-6.6-4.4-20-4.5-40-8.5-60.3-11.4-7.8-1.2-15.7-2.1-23.7-1.6ZM650.9,102.7c-1.3.5-2.5.9-3.7-.3-6.4-6.6-14.7-10.2-22.3-15-2.8-1.8-5.5-3.8-7.6-6.4-2.1-2.8-1.4-4.3,2.1-4.2,6.7,0,13.4-.3,20,.4,17.8,1.8,35.7,3.6,54.3,8.9-15,5.8-28.9,11.2-42.8,16.6Z"/>
  <path class="cls-1" d="M747.7,123.2c.6,7.6.8,15.3,1.4,22.9.4,4.5,1,9,2,13.3,1.2,5.4,3.2,10.7,8,14,2.3,1.6,2,2.9,1.5,4.9-1.3,5.2-2.7,10.4-3.2,16.3,5.3-2.1,5.4-6.7,6.3-10.5,1-4.2,0-9.1,5.5-11.4,1.5-.6,2.2-3.2,3.1-5,2.2-4.3,3.6-8.9,4.8-13.6,2.8-10.8,3.3-22,6.7-32.7,1-3.2,1.9-6.4,4-9,1.1-1.4,2.1-3.3,4.3-2.6,2.1.7,2.2,2.8,2,4.7-.5,4.5-1.1,8.9-1.7,13.4-1.7,11.1-3.1,22.1.8,33.1,2.6,7.3,6.9,13.2,14.8,14.8,8.1,1.6,14.4-2.2,19.7-8.2,6.1-7.1,11-14.8,12.9-25.6,1.9,5.5,3.1,9.6,4.8,13.5,3.3,7.3,8.6,12.4,16.8,13.1,8.2.7,14.4-3,18.9-9.8,6-9.2,7.5-19,3.9-29.5-3-9-6.3-17.8-9.9-26.6-.5-1.1-2.3-3.1.2-3.6,5.9-1.2,2.5-3.5.9-5.7-1.2-1.6-2.3-3.3-3.2-5-.9-1.8-2.7-4.3-1-5.9,1.8-1.7,3.9.4,5.7,1.6,6.3,4.4,12.7,9.1,17.2,15.2,8.1,11.2,14,23.5,10.4,38.1-3.8,15.3-11.6,28.9-18.8,43,5.5-3.9,11.2-7.8,15-13.4,16.8-25,18.6-76.3-25.4-96-2.1-.9-3.1-1.1-4.2,1.3-2.6,5.8-5.3,11.4-8.2,17.1-.7,1.5-.6,2.8-.2,4.3,4,15.6,7.6,31.4,15.4,45.7,3.4,6.3-1.2,14.2-8.2,15.4-11.6,2-25.3-8.9-25.7-20.9-.3-7.8-.4-15.6-.9-23.5-.6-10.2-3.2-20.1-5.7-31-3.8,5.4-6.8,9.5-5.6,16,2.4,13.1,4.3,26.4,3.7,39.7-.5,11-4.4,21.1-15,27-6.1,3.4-11.3,3-16.4-1.7-4.5-4-7.1-9.1-8.3-15-1.8-8.6,0-16.9,1.5-25.2,1.3-7.2,2.5-14.4,2.3-21.8,0-2-.5-4.2-2.6-5s-3.3,1.1-4.5,2.4c-4.8,5.2-8.3,11.2-10.5,17.9-2.6,7.7-4.1,15.8-6.1,23.7-2.1,8.2-3.9,16.6-8.7,23.8-3.8,5.7-8,5.5-11.6-.2-2.7-4.3-4.1-9.1-4.7-14.1-.9-9.1-1.6-18.3-2.5-27.6-1.8.7-1.8,2.1-1.7,3.9Z"/>
  <path class="cls-1" d="M716.9,50.6c2.4,23.8,4.9,47.7,7.2,71.5,1.1,11.6,0,13.6-11,18-16.7,6.6-33.5,12.7-48.6,22.9-13.3,9-26.9,17.8-41.8,24.3-3.7,1.6-7.4,3-11.4,3.5-3.8.5-5-2.2-6.4-5.1-1.3-2.9.2-4.1,2.2-5.6,5.1-4,10.4-7.8,15.1-12.2,2.4-2.3,4.3-2.9,7.4-1.8,3.9,1.4,7.8.9,10-3.1,2.4-4.2-1-13-5.5-15.2-3.6-1.8-7.8,1.1-10.2,7-.5,1.2-.9,2.5-1.4,3.7-.8,2-.7,4.4-2.5,5.9-4.6,3.7-9.4,7.3-14.1,10.9-1-1.3-.4-2.3-.4-3.2.6-12.2,5.6-22.8,11.8-33-.2-.3-.4-.6-.6-.9-2.1.7-3.7,2-5,3.9-7.3,9.9-11.8,20.8-12.1,33.2,0,3.3-1.1,5-3.9,6.5-14.2,7.7-28.3,15.6-42.3,23.5-1.4.8-3.2,1-3.9,3.3,2.9,1.3,5.4.5,8-.7,12.8-5.7,25.2-12.1,37.3-19.1,3.5-2,4.9-2.5,6.1,2.2,2.5,9.5,8.2,12.6,17.7,10.4,3.1-.7,6-1.8,9-3,8.9-3.7,16.1-10,23.7-15.6,13.4-9.9,27.2-19,43.4-24.1,6.9-2.2,13.4-5.9,20.1-8.7,10.1-4.2,14.4-12.3,15.3-22.7.3-3.3.4-6.7,0-10-1.2-17.6-2.4-35.2-4-52.8-.5-5,.6-7.4,6-6.6.2,0,.4-.3.8-.7-3.6-9.6-7.3-19.1-11.7-28.5-5.2,4.7-9.1,9.3-5,16.4.4,1.6.4,3.7.6,5.5ZM631.1,154.6c1.6.2,3.6.1,3.3,2.5-.2,1.8-1.5,3-3.4,2.9-1.9-.2-3.9-.8-3.8-3.1.2-2,2.2-2.2,3.9-2.3Z"/>
  <path class="cls-1" d="M465,22.7c7.3-2.3,9.9-6.1,9.8-13.6-10.8,3.8-21.3,7.5-31.8,11.1-51.8,17.6-103.2,35.8-153,58.1-8.3,3.7-11.5,9.4-13.5,17.8,3.9-1.9,7.3-3.5,10.7-5.2,57.4-27.4,117.2-48.9,177.8-68.2Z"/>
  <path class="cls-1" d="M450.6,68.1c-3.6.6-7.2,1.2-10.3,3.5-3.8,2.8-3.9,7-3.1,10.9.7,3.5,4.3,2.2,6.8,2.6,4.6.9,9.2,1.7,13.7,2.7,2.4.6,4.2.7,5-2.1,1-3.2,3.1-3.9,6.2-3,2.6.7,5.2,1.1,7.8,1.8,6.7,1.9,13.3,3.8,20.3,5.8,0-2.1.1-3.7,0-5.4q-.4-9.7-9.6-12.7c-12-3.9-24.2-6.2-36.8-4.1Z"/>
  <path class="cls-1" d="M500.1,64.4c.9,12.1,1.5,24.2,2.2,36.3,10.9-1.6,8.6,0,8.4-10.1,0-1.2-.2-2.3-.3-3.5-1-14.5-1.9-29-2.9-44.3,2.5,1.6,4.3,2.8,7.2,4.6-4.2-13.8-8-26.5-12-39.7-7.6,9.4-7.4,9.4-6.2,19.9,1.5,12.3,2.7,24.5,3.6,36.8Z"/>
  <path class="cls-1" d="M759.3,137.8c.5,7.7,1.1,15.5,1.6,23.1,4.6-.3,5.5-2.6,5.3-6.4-1.3-22.6-2.4-45.2-3.6-67.8-.2-4.6-.5-9.2-.7-13.7,2.7-.6,4.4,1.6,7,.8-3.9-10.4-7.6-20.8-11.9-32.8-1.8,5.8-5.9,9.1-5.1,14.4,3.8,27.4,5.6,54.9,7.4,82.4Z"/>
  <path class="cls-1" d="M610.6,49.3c14-9.4,28.8-16.4,45.6-19.2,3.4-.6,4,.2,3.9,3.2,0,4,.2,8,.5,12,.2,3.1.9,6.3,4.4,7,3.4.7,6.9.2,8.8-3.2,2.3-4.1,4.3-4.5,7.9-1,4.5,4.3,7.2,3.3,9.3-2.7,2.6-7.5-2.1-13.2-4.6-20.2-3,4.9-1,8.4.6,12,.6,1.4,3.1,3.3.9,4.5-2.3,1.3-5.2,1.1-6.7-2.1-1.5-3.5-3.3-6.9-3.5-10.8,0-2.3-.9-4.6-1.5-6.8-.5-1.7-2.1-2.3-3.6-1.7-1.5.6-.5,2-.3,3,1,4.2,2,8.4,3,12.6.9,3.8-1.6,8-5.5,9-3,.8-6.8-1.8-7.7-5.6-.7-3.1-.7-6.1.5-9.3,1.8-5.2-.4-7.4-5.6-6.2-18,4.3-34.4,12.2-50.2,21.7-3,1.8-4.6,4.5-4.7,8.9,3.2-1.9,5.9-3.4,8.5-5.1Z"/>
  <path class="cls-1" d="M783.2,89.3c9.5-1.8,17.6-6.7,25.8-11.5,5.9-3.4,11.5-7.3,18.4-8.6,2.3-.4,4.7-.3,6.3-2.5.5-.6.3-1.5-.3-1.7-2.5-.7-5-.8-7.3.3-1.7.7-3.3,1.5-4.9,2.4-6.1,3.3-12.3,6.7-18.4,10-6.5,3.6-13.7,5.1-20.8,7-2.5.7-4.7-1.4-2.7-3.2,5-4.7,6.9-13.6,16.7-12.4,4.3.5,6.6-3.9,4.6-7.8-2.7-5.1-6.9-8.9-10.9-12.9-.7-.7-1.9-1.9-3-.9-.6.5-.7,1.8-.7,2.7,0,2.6.9,5.2,0,7.8-1.5,1.2-1.4,2.5-.3,3.9h0c2.1,5,.6,8.8-3.7,12-2.2,1.7-3.9,4.1-5.3,6.6-1.4,2.6-1.6,5.1,0,7.5,1.6,2.5,4.1,1.8,6.3,1.3ZM786.5,58.1c1.8.6,4.5-1,5.5,2,.3.9.3,2-.5,2.8h0c.8-.7.8-1.8.5-2.8-.9-3-3.6-1.4-5.5-2h-.2.2Z"/>
  <path class="cls-1" d="M576.4,23c5,.3,9.9,1.2,14.6,2.9,2.4.9,2.9,1.9.8,3.8-2.4,2.1-5.1,3.7-8,5.1s-5.8,2.9-8.7,4.4c12.9.5,21.6-6,27.8-16.3,2.5-4.2,1.5-7-3-8.5-3.6-1.3-7.3-2.4-11-3.3-9.6-2.1-10.6-1.5-15,7.4-1.5,3-1.5,4.3,2.5,4.5Z"/>
  <path class="cls-1" d="M698.3,190.7c-2.2,7.4,2,13.1,9.7,13,12.8,0,20.9-8.6,30.1-16.2-3.3-1.4-5.3.1-7.4,1.4-6.6,4-13.2,7.9-21.3,7.2-5.4-.4-7.3-3.5-5.2-8.4,2-4.7,3.9-9.5,6-14.2,1.2-2.7,0-4-2.6-4.7-8-2.1-14.7,2-17,11.5,3.9-2.3,6.1-6.1,10.6-5.3,3.5.6,4.9,1.6,2.4,5-2.3,3.3-4.2,6.9-5.3,10.7Z"/>
  <path class="cls-1" d="M368.9,68.7c.7-1.7,2.1-3.5-.2-6.1-3.9,11.3-11,20.8-13.1,32.3-1.3,6.8.1,13.3,4.6,18.8,2.3,2.8,5.5,4.7,8.6,1.7,6-5.7,9.8-12.7,12.3-20.8-3.4.4-4.2,3.1-5.8,5-4.1,4.7-9.2,4.2-12-1.3-1.8-3.6-1.7-7.4-.8-11.2,1.5-6.5,4-12.4,6.4-18.4Z"/>
  <path class="cls-1" d="M140.9,137.2c4.5.1,8.9.9,13.3,1.9,3.6.9,3.3,2.3.9,4.4-3.9,3.4-8.5,5.6-13.1,7.9.5.5.9,1.1,1.2,1.1,8.7.4,22.8-10.7,24.5-19.2.5-2.8-.1-4.9-3.4-5.5-3.8-.7-7.4-1.7-11.2-2.5-9.1-1.9-9.5-1.8-14.1,6.2-.2.3-.3.6-.5.9-1.9,3-1.5,4.6,2.4,4.8Z"/>
  <path class="cls-1" d="M427,79.4c2.8-3,5.1-6.4,3.8-10.7-1.4-4.5-3.8-8.6-6.7-12.7q-1,3.6,2.8,11.2c.6,1.3,2.7,2.8.5,4.2-1.9,1.2-4.2,1.3-5.8-.8-.9-1.2-1.4-2.6-2.1-3.9-1.8-3.2-3.5-6.4-5.3-9.5-.4-.6-1.3-1.5-1.8-1.3-1.1.3-1.3,1.4-1.1,2.4.6,2.6,1.3,5.2,1.8,7.8.8,3.6-2.1,7.5-6.1,7.8-4.4.3-5.1-2.7-5-6.2,0-1.5.1-3,0-4.5-.1-.9.8-2.7-1.2-2.5-1.3,0-1.7,1.3-1.7,2.6.1,3.3-.1,6.7.3,10s1.1,6.8,5,7.9c3.8,1,6.8-.5,9.3-3.4,1-1.1,2-2.2,3-3.3,1.8,1.7,3.4,3.3,5.2,4.8,1.4,1.2,3.5,1.9,5.1,0Z"/>
  <path class="cls-1" d="M550.1,114.8c-1.6-.2-3.8-.8-3.6,2.4.7,14.8,1.2,29.6,1.8,44.5,2.6-2,5.6-3.5,5.9-6.9,1-12.6.6-25.2.7-37.8,0-3.8-3.1-1.9-4.8-2.2Z"/>
  <path class="cls-1" d="M559.2,70.4c.7,1.7,2.1,3.1,4.3,2.1,2.9-1.2,4.4.6,5.5,2.7,1.8,3.5,3.4,7,5.4,11.1,2.1-7.2,3.4-13.9,6.8-19.8,1.9-3.4,4.1-6.6,8.2-2.2.8.8,1.9,1.6,3,.5,1.1-1,2.6-2.3,2-3.7-1.2-2.8-3.5-4.9-6.2-6.3-2.3-1.2-4.1.8-5.6,2.3-2.1,2-3.2,4.6-4.1,7.3-1.2,3.6-2.4,7.2-3.6,10.9-2.5-1-2.9-3.4-3.9-5.1-1.6-2.8-3.3-5.5-6.3-6.9-1.7-.8-3.6-1.1-5.1.5-1.8,2-1.3,4.5-.4,6.6Z"/>
  <path class="cls-1" d="M149.3,104.5c4.6-.2,6.5,2.6,8,6.1,1,2.4,1.9,4.9,3.1,8,2.6-7.5,4.9-14.2,7.4-20.9,1.4-3.7,3.7-4.3,6.9-1.8,1,.8,1.9,3,3.6,1.2,1.3-1.4,2.3-3.3.6-5.4-1.8-2.2-3.3-4.9-6.5-4.8-2.9,0-4.1,2.6-5.4,4.7-3,5-4,10.7-6.4,16.5-2.8-4-5.1-7.6-7.7-11-1.6-2.1-3.9-2.5-6.3-1.7-2.2.7-2.2,2.8-2,4.6.5,2.7,2,4.6,4.7,4.5Z"/>
  <path class="cls-1" d="M417.8,87c-3.2,0-4.4,2.6-5.7,4.9-2.9,5-3.9,10.8-6,16.2-2.7-1.1-3.6-3.2-4.5-5.4-1-2.4-2.2-4.9-4.5-6.4-1.8-1.3-4-1.8-6.1-.4-1.7,1.1-1.4,2.9-1,4.5.5,2.3,1.4,4.4,4.1,4.2,4.5-.4,6.2,2.5,7.7,5.7,1.4,2.8,2.5,5.7,3.7,8.6,1.6-.9,1.4-2.4,1.7-3.6,1.5-5.8,2.9-11.6,5.3-17.1,1.5-3.5,3.5-5.2,7.1-2.2.9.8,1.9,2.8,3.6.9,1.4-1.6,2.4-3.2.8-5.3-1.8-2-3.2-4.5-6.2-4.6Z"/>
  <path class="cls-1" d="M244.7,73.5c2.7-1.1,3.7.9,4.6,2.6,1.9,3.7,3.4,7.5,5.5,11.9,2.2-7.3,3.5-14.2,6.7-20.5,1.6-3.2,3.7-5.3,7.4-2.3,1.1.9,2.2,3.3,3.9.8,1.1-1.7,2.6-3.4.6-5.8-4.5-5.5-8.8-5.4-11.9.9-2.4,4.9-4.2,10-6.3,15.2-1.7-.9-2.4-2.2-3.2-3.5-1.4-2.5-2.7-5-4.9-6.9-2-1.7-4.5-2.2-6.5-.8-2.3,1.6-1.2,4.2-.6,6.5.6,2.7,2.6,2.8,4.7,1.9Z"/>
  <path class="cls-1" d="M470.2,34.5c-2.9,4.8-4.2,10.3-6.5,15.8-2.7-3.9-5.1-7.5-7.7-10.9-1.4-1.8-3.7-2.3-5.9-1.3-2.2,1-2.2,3.2-1.8,5.2.5,2.3,1.7,4,4.4,3.8,3.1-.3,5,1.5,6.4,3.9,1.7,2.8,3,5.8,5,9.6,2.1-6.8,3-13.1,5.7-18.8,2.6-5.4,3.7-5.8,8.5-2.8,1.6,1,3,2.2,4.6,0,1.4-1.9,1.3-3.4-.3-5.2-4.6-5.6-8.7-5.4-12.4.8Z"/>
  <path class="cls-1" d="M920.3,127.4c4.6-.7,5.5,2,7.1,4.5,1.5,2.4,2.5,5,4.2,8.4,2.2-6.5,3.6-12.4,6.3-18,2.5-5.3,3.4-5.6,8.7-3,1.3.6,2.4,1.4,3.5,0,.7-.9,2.1-1.7,1.6-2.9-1.2-2.8-3-5.2-6.1-6.2-2.6-.8-4.5.5-6,2.5-2.8,3.8-4.1,8.3-5.7,12.6-.6,1.6-.2,4.4-2.1,4.5-2,0-2.7-2.6-3.6-4.3-.6-1.2-.8-2.5-1.5-3.7-1.1-2.1-2.9-3.6-5.3-4.1-2.5-.5-4.5,0-4.5,2.9-.1,2.9-.5,7.4,3.4,6.8Z"/>
  <path class="cls-1" d="M327.2,90.6c-2,2.1-3.2,4.6-4,7.4-1.2,3.7-2.3,7.5-3.4,11-1.4.2-1.5-.5-2-1-2.8-2.7-4.2-6.4-6.6-9.3-1.8-2.2-4.5-2.3-6.9-1.3-1.8.7-2.1,2.4-1.3,4.2.9,2.1,1.6,5.3,4.5,4.4,3.9-1.2,5,1.3,6.6,3.6,2.2,3.1,3,6.9,4.4,10.5,1.4-.9,1.3-2.1,1.6-3.2,1.3-5.7,2.7-11.3,5.1-16.6,2.6-5.9,4.1-6.2,9-2.2.7.6,1.3,2,2.4,1.1.9-.8,1.9-2.3,1.8-3.4-.3-2.9-2.2-5.2-4.7-6.6-2.4-1.1-4.7-.4-6.5,1.4Z"/>
  <path class="cls-1" d="M889.5,238.2c12.8-5.1,24.6-10,36.6-14.4,5.4-2,8.9-5.3,11.4-11.5-14.6,6.3-28.3,12.2-42,18.2-3.1,1.3-4.4,4.1-6,7.7Z"/>
  <path class="cls-1" d="M858.6,213.9c-6.3-.5-12,3.9-18.6,2.1-1.5-.4-3.6.7-5.1,1.6-8.7,5.5-16.6,12.1-25.5,17.2-.2.1,0,.5-.3,1.8,5.7-3.1,10.9-5.8,15.9-8.9,5.6-3.5,11.2-6.4,18.1-5.6,2.2.3,4.4-.3,6.1-1.7,1.6-1.4,2.9-1.3,4.8-.5,2.5,1,5.6.7,7.2-1.7,1.5-2.4,3.2-5.2,1.4-8.8-1.7,1.6-.7,4.8-4,4.5Z"/>
  <path class="cls-1" d="M926.8,142.9c-3.5,3.7-6.3,9.3-7.1,13.7-.9,5.4,1,10.8,4.2,12.4,3.1,1.5,10-.5,13-4.3,2.3-2.9,5.3-6.1,4-10-1.1-3.2-4.3-5-7.8-5.5-3.4-.5-4,2.8-6.4,5.3,2.5.2,4,.3,5.4.4,1.7.2,3.6.5,4.2,2.2.8,1.8-1.1,2.9-2.2,4-2.5,2.6-5.6,4-8.9,1.9-3.3-2.1-2.5-5.5-1.6-8.5,1.3-3.8,3-7.3,3.2-11.6Z"/>
  <path class="cls-1" d="M308.9,63.7c4.5-2,7.5-5.3,9.2-10,1.5-4.3-.5-8.1-5.4-9.9-4.8-1.8-5.4,1.8-6.8,4.6,2.3.6,4.5,1.1,6.5,1.8,1,.4,2.4,1.1,1.8,2.5-1.2,2.8-3,5.3-6.5,5.2-3.3,0-5.8-1.6-6-5.3-.1-3.2.9-6.2,2.3-9.1.9-2,1.9-3.9.8-6.9-2.8,4-4.4,7.7-5.9,11.5-1.5,4.1-1.2,8.2.7,12.1,2,4.3,5,5.5,9.3,3.5Z"/>
  <path class="cls-1" d="M307.1,161c-1-.5-2-.6-2.5.5-1.9,3.7-3.7,7.4-5.5,11.1-.3.7-.1,1.4.6,1.7,3.8,1.7,7.6,3.4,11.2,5,.5-.1.8,0,1.1-.2.8-.3,7-11.1,6.9-11.9-.1-.8-.7-1-1.3-1.3-3.6-1.6-7.1-3.3-10.5-4.9Z"/>
  <path class="cls-1" d="M332.3,162.6c-.7-.3-1.4-.5-1.8.1-2.2,3.6-4.6,7.2-6.4,11.1-.9,1.9,1.6,2.2,2.8,2.7,3.7,1.3,7.5,5.8,10.9,3.7,3-1.9,4-7,5.8-10.5.2-.9-.1-1.4-.7-1.7-3.5-1.9-7-3.6-10.6-5.4Z"/>
  <path class="cls-1" d="M531.6,153c.2,0,.7-.7.9-1.1,1.7-3.3,3.3-6.5,4.9-9.8.4-.8.8-1.7-.2-2.1-3.7-1.9-7.4-3.7-10.2-5.1-2.6-.6-3,.6-3.6,1.6-1,1.9-2.2,3.8-2.9,5.8-.6,1.7-3.2,3.8-1,5.3,3.7,2.4,7.6,4.6,12.1,5.4Z"/>
  <path class="cls-1" d="M417,214.7c12.6-6.1,24.7-12,36.7-17.8,3.1-1.5,3.2-4.3,3.3-7.8-12.6,6.6-24.8,13-36.9,19.4-2.2,1.1-2.7,3.3-3.1,6.2Z"/>
  <path class="cls-1" d="M976.8,218.9c-3.5-1.4-7-2.9-10.5-4.4-1.2-.5-1.9.1-2.5.9-2.3,3.1-5.9,6-6.2,9.3-.2,2.2,5.3,2.9,8.1,4.4,1.2.6,2.4,1.1,3.6,1.6.7.3,1.7,1,2.3.2,2.3-3.2,4.3-6.6,6.2-9.4.2-1.6,0-2.3-1-2.6Z"/>
  <path class="cls-1" d="M528.6,61.8c2.2-.6,3.8-2,4.5-4.2.5-1.7.3-2.8-1.8-3.2-5.6-1.2-6.1-2.1-4.6-7.8,1.5-5.9,3.2-11.8,4.8-17.7-6.3,4.8-9.7,11.2-10.8,18.9-.6,4.4.5,8.2,2.9,11.7,1.2,1.7,2.8,2.9,5,2.3Z"/>
  <path class="cls-1" d="M195,236.1c12.4-7.4,24.3-14.5,36.2-21.7,2.2-1.3,2.6-3.6,3.2-7.3-12.8,7.8-24.7,15.2-36.6,22.4-2.3,1.4-2.6,3.5-2.8,6.6Z"/>
  <path class="cls-1" d="M743.7,105.3c2.9-.3,3.5-2.8,4.1-5,.3-1,.3-2.2-1.2-2.3-7.6-.4-5.4-5.8-4.7-9.8.9-5.2,2.6-10.2,4.1-16.2-8.3,6.6-12.2,19.6-9.2,28.1,1.1,3.3,3.1,5.6,6.9,5.2Z"/>
  <path class="cls-1" d="M178.2,134.5c1.4,2.9,3.4,5,6.7,5.2,2.3.1,3.8-1.2,4.2-3.4.2-1.3,1-3.6-1-3.8-7.7-.9-4.9-5.7-4.1-10,.8-4.4,2.9-8.6,3.1-13.4-7.1,2.4-12.3,18.5-8.9,25.4Z"/>
  <path class="cls-1" d="M405.3,146.7c-1,.1-1.5,0-1.9.3-6.4,4.4-10.5,21.8-6.8,28.5,1.8,3.2,5.6,4.3,8.6,2.5,1.6-1,2.2-2.4,2-4.2-.2-1.5-.8-2.6-2.5-2.5-5.9.3-5-3.7-4.2-7.1,1.3-5.9,3.1-11.5,4.8-17.5Z"/>
  <path class="cls-1" d="M507.8,151.7c-8.6,7.6-11.1,16.1-10.5,25.6.3,4.9,3.1,7.8,6.8,7.8s4.2-2.7,5.1-5.3c.5-1.5-.3-1.9-1.8-2.1-5.1-.9-6.3-2.5-5-7.6,1.5-5.7,3.3-11.3,5.4-18.4Z"/>
  <path class="cls-1" d="M820.8,110.9c-8,4.6-13.1,19.2-9.8,26.9.8,1.9,2.1,3.4,4,4.3,3.1,1.4,6.3-.2,6.9-3.4.2-1.3.4-2.4-1.7-2.8-5.5-1.2-6.5-2.8-4.9-8.2,1.7-5.6,3.6-11,5.5-16.8Z"/>
  <path class="cls-1" d="M695.5,105.3c-7,5.7-11.4,18.6-9.3,25.8.8,2.8,2.3,5.3,5.1,6.4,3.3,1.3,4.9-.6,6-3.4,1.3-3.3-.7-3.6-3.1-3.8-3.5-.4-4.2-2.7-3.8-5.7.8-6.3,2.8-12.3,5.1-19.3Z"/>
  <path class="cls-1" d="M670.5,177.2c-4.6,4.4-6.8,9.7-7.6,15.7-.5,3.3-.8,6.6.3,9.8,1,3,3.3,4.6,6.4,4.7,2.4.1,3.9-1.5,4.7-3.8.5-1.3.8-2.4-1.3-2.9-6.3-1.5-6.3-1.7-5.1-8.2.8-5,3.2-9.9,2.6-15.3Z"/>
  <path class="cls-1" d="M161.9,193.3c11.4-6.3,22.7-12.6,34.1-18.8,2.7-1.5,3.4-3.8,3.7-6.7-13.3,8.5-27.9,15-40.4,25.2,1.6,1.3,2.1.6,2.6.3Z"/>
  <path class="cls-1" d="M355.1,162.5c5.1,7.2,7.7,15.3,8.8,24,2.8-11.2,2-21.6-6.8-30.6-.9,2.2-3.7,4.1-2,6.6Z"/>
  <path class="cls-1" d="M604,91.2c-6.3,6.8-9.1,13.4-8.2,21.4.3,2.7,1.6,4.8,4.3,5.5,2.2.6,4-.3,5-2.3,1-1.8,1.3-3.7-1.6-3.9-4.6-.2-4.5-3-3.7-6.2,1.3-4.4,2.6-8.8,4.2-14.5Z"/>
  <path class="cls-1" d="M739.4,170.7c.3-1.4,0-2.3-1.7-2.3-4.7.1-4-3.1-3.4-5.8,1.1-4.5,2.6-8.9,4.2-14.3-6,4.6-9.7,15.3-8,21.1.8,2.7,2.5,4.3,5.2,4.6,2.3.2,3.2-1.3,3.7-3.3Z"/>
  <path class="cls-1" d="M253.2,142.9c-6.4,5.4-9.5,13.9-8.1,20.6.7,3.1,2.2,5.6,5.8,5.9,2.2.2,3.2-1.5,3.8-3.3.4-1.1,0-2-1.2-2.2-6.4-.6-4.9-5.1-4.2-8.8.9-3.8,2.4-7.5,3.9-12.2Z"/>
  <path class="cls-1" d="M278.1,151.1c-5.5,4-8.8,15.1-6.4,20.6.7,1.7,1.7,3.3,3.5,4,2.3.9,3.8-.2,4.5-2.5.5-1.8,1.3-3.6-1.7-4-3.5-.5-3.5-2.9-3-5.6.8-4.1,2.9-8,3.1-12.5Z"/>
  <path class="cls-1" d="M291,96.4c-5.6,6.5-6.6,13.2-6,20.3.2,2.8,2.4,4.3,4.8,5.2,2.3.8,3.4-.9,4-2.7.4-1.1.7-2.6-1.1-2.6-5.5.2-4-3.4-3.9-6.5.4-4.2,2.7-8.2,2.2-13.7Z"/>
  <path class="cls-1" d="M770.8,191.6c7.1-5.3,15.8-8.4,21.5-15.7-.3-.4-.5-.7-.8-1.1-7.2,5.1-14.5,10.2-21.7,15.4.3.4.6.9,1,1.4Z"/>
  <path class="cls-1" d="M616.5,138.3c.2.3.4.6.6.9.2-.3.8-.7.7-.9-.3-.9-.8-.3-1.3,0Z"/>
</svg>